<?xml version="1.0" encoding="UTF-8" standalone="no"?>
<!DOCTYPE svg PUBLIC "-//W3C//DTD SVG 1.1//EN" "http://www.w3.org/Graphics/SVG/1.1/DTD/svg11.dtd">
<svg width="100%" height="100%" viewBox="0 0 100 125" version="1.1" xmlns="http://www.w3.org/2000/svg" xmlns:xlink="http://www.w3.org/1999/xlink" xml:space="preserve" xmlns:serif="http://www.serif.com/" style="fill-rule:evenodd;clip-rule:evenodd;stroke-linejoin:round;stroke-miterlimit:1.41421;">
    <path d="M79.4,43.4L69.3,33.3C68.9,32.9 68.4,32.7 67.9,32.7C67.4,32.7 66.9,32.9 66.5,33.3L66,33.7L66,25C66,23.9 65.1,23 64,23L22,23C20.9,23 20,23.9 20,25L20,75C20,76.1 20.9,77 22,77L64,77C65.1,77 66,76.1 66,75L66,59.7L79.4,46.3C80.2,45.5 80.2,44.2 79.4,43.4ZM62,73L24,73L24,27L62,27L62,37.8L46.4,53.3C46,53.7 45.8,54.3 45.8,54.8L46.3,64.4C46.4,65.4 47.2,66.2 48.2,66.3L57.8,66.8L57.9,66.8C58.4,66.8 58.9,66.6 59.3,66.2L61.9,63.6L61.9,73L62,73ZM57.2,62.8L50.2,62.4L49.8,55.4L67.8,37.4L75.1,44.7L57.2,62.8ZM53.7,40L32.3,40C31.2,40 30.3,39.1 30.3,38C30.3,36.9 31.2,36 32.3,36L53.7,36C54.8,36 55.7,36.9 55.7,38C55.7,39.1 54.8,40 53.7,40Z" style="fill-rule:nonzero;"/>
</svg>
