<?xml version="1.0" encoding="UTF-8" standalone="no"?>
<!DOCTYPE svg PUBLIC "-//W3C//DTD SVG 1.1//EN" "http://www.w3.org/Graphics/SVG/1.1/DTD/svg11.dtd">
<svg width="100%" height="100%" viewBox="0 0 230 103" version="1.1" xmlns="http://www.w3.org/2000/svg" xmlns:xlink="http://www.w3.org/1999/xlink" xml:space="preserve" xmlns:serif="http://www.serif.com/" style="fill-rule:evenodd;clip-rule:evenodd;stroke-linecap:round;">
    <path id="svgGroup" d="M20.215,0L21.143,2.1C18.803,3.651 16.56,5.965 14.413,9.04C13.591,10.223 12.822,11.443 12.109,12.695C10.456,15.607 9.039,18.647 7.871,21.786C6.88,24.438 6.029,27.141 5.322,29.883C3.763,35.797 2.871,41.867 2.664,47.979C2.652,48.376 2.643,48.773 2.637,49.17L2.637,51.709C2.655,58.105 3.424,64.476 4.928,70.693C4.977,70.9 5.027,71.107 5.078,71.313C5.945,74.887 7.064,78.396 8.427,81.812C9.42,84.291 10.568,86.704 11.865,89.038C12.748,90.634 13.721,92.178 14.78,93.663C15.852,95.152 16.948,96.453 18.069,97.564C19.009,98.507 20.038,99.356 21.143,100.098L20.215,102.197C18.377,101.021 16.694,99.619 15.206,98.024C13.862,96.607 12.568,94.98 11.325,93.144C10.826,92.407 10.347,91.657 9.888,90.894C7.974,87.688 6.362,84.312 5.073,80.808C4.111,78.21 3.289,75.562 2.612,72.876C1.385,67.979 0.596,62.983 0.255,57.947C0.083,55.513 -0.002,53.075 0,50.635C0,43.604 0.863,36.686 2.588,29.883C3.633,25.697 5.041,21.611 6.795,17.669C7.731,15.581 8.78,13.546 9.937,11.572C10.951,9.829 12.074,8.151 13.299,6.548C14.534,4.945 15.804,3.554 17.109,2.373C18.073,1.493 19.112,0.699 20.215,0ZM209.033,102.197L208.105,100.098C211.491,97.819 214.632,94.043 217.529,88.77C219.67,84.841 221.421,80.711 222.755,76.44C223.312,74.676 223.808,72.892 224.243,71.094C225.548,65.645 226.313,60.082 226.528,54.483C226.584,53.136 226.611,51.787 226.611,50.439C226.598,43.762 225.762,37.112 224.121,30.64C223.24,27.076 222.11,23.578 220.74,20.172C219.749,17.716 218.603,15.325 217.31,13.013C214.429,7.886 211.36,4.248 208.105,2.1L209.033,0C210.623,1.017 212.086,2.219 213.391,3.582C214.648,4.873 215.871,6.367 217.062,8.062C217.859,9.201 218.61,10.372 219.312,11.572C222.485,16.976 224.935,23.08 226.66,29.883C228.385,36.686 229.248,43.929 229.248,51.611C229.267,58.78 228.39,65.924 226.636,72.876C225.764,76.354 224.643,79.764 223.281,83.08C222.17,85.779 220.86,88.391 219.36,90.894C218.272,92.717 217.057,94.46 215.722,96.111C214.287,97.87 212.791,99.374 211.234,100.624C210.531,101.19 209.796,101.715 209.033,102.197ZM79.541,43.652L66.65,11.768L53.662,43.652L50.781,43.652L65.381,8.154L67.92,8.154L82.52,43.652L79.541,43.652ZM198.486,43.652L185.596,11.768L172.607,43.652L169.727,43.652L184.326,8.154L186.865,8.154L201.465,43.652L198.486,43.652ZM137.647,45.41L137.647,48.047L114.697,48.047L114.697,45.41L137.647,45.41Z" style="fill:none;stroke:black;stroke-width:0.71px;"/>
</svg>
