<?xml version="1.0" encoding="UTF-8" standalone="no"?>
<!DOCTYPE svg PUBLIC "-//W3C//DTD SVG 1.1//EN" "http://www.w3.org/Graphics/SVG/1.1/DTD/svg11.dtd">
<svg width="100%" height="100%" viewBox="0 0 64 80" version="1.1" xmlns="http://www.w3.org/2000/svg" xmlns:xlink="http://www.w3.org/1999/xlink" xml:space="preserve" xmlns:serif="http://www.serif.com/" style="fill-rule:evenodd;clip-rule:evenodd;stroke-linejoin:round;stroke-miterlimit:1.41421;">
    <path d="M44,42C44,41.229 43.699,40.532 43.22,40C43.7,39.468 44,38.771 44,38C44,37.229 43.699,36.532 43.22,36C43.7,35.468 44,34.771 44,34C44,33.159 43.65,32.401 43.091,31.855C46.813,28.64 49,23.945 49,19C49,9.626 41.374,2 32,2C22.626,2 15,9.626 15,19C15,23.945 17.187,28.64 20.909,31.855C20.35,32.401 20,33.159 20,34C20,34.771 20.301,35.468 20.78,36C20.3,36.532 20,37.229 20,38C20,38.771 20.301,39.468 20.78,40C20.3,40.532 20,41.229 20,42C20,43.302 20.839,44.402 22,44.816L22,52C22,52.269 22.11,52.52 22.295,52.705L22.293,52.707L31.293,61.707C31.488,61.902 31.744,62 32,62C32.256,62 32.512,61.902 32.707,61.707L41.707,52.707L41.705,52.705C41.89,52.52 42,52.269 42,52L42,44.816C43.161,44.402 44,43.302 44,42ZM22,38C22,37.449 22.449,37 23,37L41,37C41.551,37 42,37.449 42,38C42,38.551 41.551,39 41,39L23,39C22.449,39 22,38.551 22,38ZM22,34C22,33.449 22.449,33 23,33L40.996,33L41.008,33.002C41.555,33.006 42,33.451 42,34C42,34.551 41.551,35 41,35L23,35C22.449,35 22,34.551 22,34ZM29.64,23.232L25.778,20.013C24.648,19.071 24,17.688 24,16.218C24,14.503 25.402,13 27,13C27.311,13 27.616,13.05 27.908,13.147C27.888,13.175 27.874,13.207 27.855,13.235C27.75,13.39 27.655,13.549 27.569,13.714C27.55,13.751 27.527,13.786 27.508,13.824C27.409,14.025 27.326,14.233 27.255,14.446C27.237,14.501 27.223,14.558 27.206,14.613C27.157,14.78 27.117,14.95 27.085,15.122C27.073,15.186 27.061,15.25 27.052,15.315C27.022,15.541 27,15.769 27,16C27,17.503 27.682,18.917 28.872,19.877C29.055,20.025 29.278,20.099 29.5,20.099C29.722,20.099 29.945,20.025 30.128,19.877C31.318,18.917 32,17.503 32,16C32,15.769 31.978,15.541 31.947,15.315C31.938,15.25 31.926,15.187 31.914,15.122C31.883,14.95 31.843,14.78 31.793,14.613C31.777,14.557 31.763,14.501 31.745,14.446C31.674,14.233 31.591,14.025 31.492,13.824C31.474,13.788 31.452,13.754 31.433,13.717C31.346,13.55 31.248,13.388 31.142,13.232C31.124,13.205 31.111,13.175 31.092,13.148C31.677,12.954 32.325,12.954 32.91,13.148C32.891,13.175 32.878,13.205 32.86,13.232C32.754,13.389 32.657,13.55 32.569,13.717C32.55,13.753 32.528,13.787 32.51,13.824C32.411,14.025 32.327,14.234 32.257,14.446C32.239,14.501 32.225,14.557 32.209,14.613C32.16,14.78 32.12,14.95 32.088,15.122C32.076,15.186 32.064,15.25 32.055,15.315C32.022,15.541 32,15.769 32,16C32,17.503 32.682,18.917 33.872,19.877C34.055,20.025 34.278,20.099 34.5,20.099C34.722,20.099 34.945,20.025 35.128,19.877C36.318,18.917 37,17.503 37,16C37,15.769 36.978,15.541 36.947,15.315C36.938,15.25 36.926,15.187 36.914,15.122C36.883,14.95 36.843,14.78 36.793,14.613C36.777,14.557 36.763,14.501 36.744,14.446C36.673,14.233 36.59,14.025 36.491,13.824C36.473,13.786 36.45,13.751 36.43,13.714C36.344,13.549 36.248,13.39 36.144,13.235C36.125,13.206 36.111,13.175 36.091,13.147C36.384,13.05 36.688,13 37,13C38.598,13 40,14.503 40,16.218C40,17.688 39.352,19.072 38.222,20.013L34.36,23.232C34.132,23.422 34,23.703 34,24L34,31L30,31L30,24C30,23.703 29.868,23.422 29.64,23.232ZM29.708,14.729C29.792,14.903 29.853,15.087 29.901,15.275C29.913,15.321 29.923,15.367 29.933,15.413C29.972,15.606 30,15.801 30,16C30,16.199 29.972,16.394 29.933,16.586C29.923,16.632 29.913,16.679 29.901,16.724C29.853,16.911 29.792,17.095 29.708,17.27C29.702,17.283 29.693,17.296 29.686,17.309C29.634,17.412 29.564,17.506 29.5,17.603C29.436,17.506 29.366,17.412 29.314,17.309C29.307,17.296 29.298,17.283 29.292,17.27C29.208,17.095 29.147,16.911 29.099,16.724C29.087,16.678 29.077,16.632 29.067,16.586C29.028,16.394 29,16.199 29,16C29,15.801 29.028,15.606 29.067,15.414C29.077,15.368 29.087,15.321 29.099,15.276C29.147,15.089 29.208,14.905 29.292,14.73C29.299,14.717 29.307,14.704 29.314,14.691C29.366,14.588 29.436,14.494 29.5,14.397C29.564,14.494 29.634,14.588 29.686,14.691C29.692,14.704 29.701,14.716 29.708,14.729ZM34.708,14.729C34.792,14.903 34.853,15.087 34.901,15.275C34.913,15.321 34.923,15.367 34.933,15.413C34.972,15.606 35,15.801 35,16C35,16.199 34.972,16.394 34.933,16.586C34.923,16.632 34.913,16.679 34.901,16.724C34.853,16.911 34.792,17.095 34.708,17.27C34.702,17.283 34.693,17.296 34.686,17.309C34.634,17.412 34.564,17.506 34.5,17.603C34.436,17.506 34.366,17.412 34.314,17.309C34.307,17.296 34.298,17.283 34.292,17.27C34.208,17.095 34.147,16.911 34.099,16.724C34.087,16.678 34.077,16.632 34.067,16.586C34.028,16.394 34,16.199 34,16C34,15.801 34.028,15.606 34.067,15.414C34.077,15.368 34.087,15.321 34.099,15.276C34.147,15.089 34.208,14.905 34.292,14.73C34.299,14.717 34.307,14.704 34.314,14.691C34.366,14.588 34.436,14.494 34.5,14.397C34.564,14.494 34.634,14.588 34.686,14.691C34.692,14.704 34.701,14.716 34.708,14.729ZM17,19C17,10.729 23.729,4 32,4C40.271,4 47,10.729 47,19C47,23.71 44.755,28.168 40.978,31L36,31L36,24.468L39.502,21.549C41.09,20.227 42,18.283 42,16.218C42,13.39 39.71,11 37,11C36.112,11 35.261,11.244 34.497,11.697C32.958,10.805 31.044,10.805 29.504,11.697C28.739,11.244 27.888,11 27,11C24.29,11 22,13.39 22,16.218C22,18.283 22.91,20.227 24.498,21.55L28,24.468L28,31L23.022,31C19.245,28.168 17,23.71 17,19ZM24.57,52.155L26,51.202L28.445,52.832C28.781,53.056 29.218,53.056 29.554,52.832L32,51.202L34.445,52.832C34.781,53.056 35.218,53.056 35.554,52.832L38,51.202L39.43,52.156L35.586,56L28.414,56L24.57,52.155ZM38.555,49.168C38.219,48.944 37.782,48.944 37.446,49.168L35,50.798L32.555,49.168C32.219,48.944 31.782,48.944 31.446,49.168L29,50.798L26.555,49.168C26.219,48.944 25.782,48.944 25.446,49.168L24,50.131L24,45L40,45L40,50.131L38.555,49.168ZM32,59.586L30.414,58L33.586,58L32,59.586ZM41,43L23,43C22.449,43 22,42.551 22,42C22,41.449 22.449,41 23,41L41,41C41.551,41 42,41.449 42,42C42,42.551 41.551,43 41,43Z" style="fill-rule:nonzero;"/>
    <g transform="matrix(0.7071,-0.7071,0.7071,0.7071,11.1091,36.8198)">
        <rect x="47.172" y="4" width="5.657" height="2"/>
    </g>
    <g transform="matrix(0.7071,-0.7071,0.7071,0.7071,-8.6899,45.0208)">
        <rect x="49" y="30.172" width="2" height="5.657"/>
    </g>
    <rect x="52" y="18" width="6" height="2"/>
    <g transform="matrix(0.7071,-0.7071,0.7071,0.7071,0.565,11.364)">
        <rect x="13" y="2.172" width="2" height="5.657"/>
    </g>
    <g transform="matrix(0.7071,-0.7071,0.7071,0.7071,-19.234,19.565)">
        <rect x="11.172" y="32" width="5.657" height="2"/>
    </g>
    <rect x="6" y="18" width="6" height="2"/>
    <rect x="44" y="50" width="2" height="2"/>
    <rect x="48" y="50" width="2" height="2"/>
    <rect x="52" y="50" width="2" height="2"/>
    <rect x="10" y="50" width="2" height="2"/>
    <rect x="14" y="50" width="2" height="2"/>
    <rect x="18" y="50" width="2" height="2"/>
    <g transform="matrix(1,0,0,1,0,84)">
        <text x="0px" y="0px" style="font-family:'Arial-BoldMT', 'Arial', sans-serif;font-weight:700;font-size:5px;">from the Noun Project</text>
    </g>
</svg>
