<?xml version="1.0" encoding="UTF-8" standalone="no"?>
<!DOCTYPE svg PUBLIC "-//W3C//DTD SVG 1.1//EN" "http://www.w3.org/Graphics/SVG/1.1/DTD/svg11.dtd">
<svg width="100%" height="100%" viewBox="0 0 262 103" version="1.1" xmlns="http://www.w3.org/2000/svg" xmlns:xlink="http://www.w3.org/1999/xlink" xml:space="preserve" xmlns:serif="http://www.serif.com/" style="fill-rule:evenodd;clip-rule:evenodd;stroke-linecap:round;">
    <path id="svgGroup" d="M139.404,26.416L142.627,26.416C139.964,31.421 137.955,36.748 136.651,42.266C135.694,46.387 135.209,50.603 135.205,54.834C135.194,57.027 135.357,59.218 135.693,61.386C136.313,65.259 137.526,68.568 139.331,71.313C140.252,72.752 141.411,74.024 142.759,75.075C144.995,76.763 147.736,77.648 150.537,77.588C152.221,77.609 153.894,77.325 155.477,76.75C157.726,75.905 159.611,74.423 161.133,72.302C161.182,72.233 161.231,72.164 161.279,72.095C162.33,70.542 163.142,68.841 163.689,67.047C164.198,65.444 164.577,63.667 164.827,61.717C165.056,59.871 165.176,58.012 165.186,56.152L165.186,41.65L167.871,41.65L167.871,56.396C167.969,63.2 169.263,68.433 171.753,72.095C173.689,75.081 176.864,77.048 180.4,77.453C181.103,77.544 181.811,77.589 182.52,77.588C186.256,77.668 189.837,76.063 192.262,73.22C192.784,72.627 193.265,71.998 193.701,71.338C196.016,67.853 197.362,63.434 197.741,58.081C197.816,57 197.853,55.917 197.852,54.834C197.841,50.224 197.268,45.633 196.143,41.162C195.004,36.572 193.099,31.657 190.43,26.416L193.652,26.416L195.996,31.689C198.032,36.431 199.368,41.444 199.961,46.571C200.285,49.264 200.444,51.975 200.439,54.688C200.452,57.179 200.263,59.666 199.871,62.126C199.425,64.831 198.716,67.281 197.743,69.476C197.159,70.803 196.452,72.072 195.63,73.267C194.444,75.032 192.933,76.555 191.178,77.755C188.869,79.298 186.203,80.118 183.178,80.215C182.975,80.222 182.771,80.225 182.568,80.225C180.979,80.238 179.394,80.048 177.853,79.661C175.799,79.145 173.888,78.169 172.266,76.807C169.634,74.587 167.743,71.425 166.594,67.321C166.563,67.212 166.533,67.102 166.504,66.992C166.096,68.56 165.528,70.082 164.811,71.535C163.845,73.462 162.641,75.085 161.198,76.406C161.049,76.543 160.897,76.676 160.742,76.807C158.774,78.449 156.399,79.531 153.869,79.939C152.736,80.134 151.588,80.23 150.439,80.225C148.163,80.258 145.907,79.799 143.825,78.879C141.604,77.87 139.675,76.292 138.037,74.147C137.8,73.836 137.572,73.518 137.354,73.193C135.764,70.788 134.588,68.133 133.876,65.339C133.273,63.07 132.886,60.598 132.717,57.922C132.65,56.845 132.616,55.767 132.617,54.688C132.593,50.035 133.086,45.393 134.086,40.848C134.782,37.729 135.762,34.679 137.012,31.738L139.404,26.416ZM20.215,0L21.143,2.1C18.803,3.651 16.56,5.965 14.413,9.04C13.591,10.223 12.822,11.443 12.109,12.695C10.456,15.607 9.039,18.647 7.871,21.786C6.88,24.438 6.029,27.141 5.322,29.883C3.763,35.797 2.871,41.867 2.664,47.979C2.652,48.376 2.643,48.773 2.637,49.17L2.637,51.709C2.655,58.105 3.424,64.476 4.928,70.693C4.977,70.9 5.027,71.107 5.078,71.313C5.945,74.887 7.064,78.396 8.427,81.812C9.42,84.291 10.568,86.704 11.865,89.038C12.748,90.634 13.721,92.178 14.78,93.663C15.852,95.152 16.948,96.453 18.069,97.564C19.009,98.507 20.038,99.356 21.143,100.098L20.215,102.197C18.377,101.021 16.694,99.619 15.206,98.024C13.862,96.607 12.568,94.98 11.325,93.144C10.826,92.407 10.347,91.657 9.888,90.894C7.974,87.688 6.362,84.312 5.073,80.808C4.111,78.21 3.289,75.562 2.612,72.876C1.385,67.979 0.596,62.983 0.255,57.947C0.083,55.513 -0.002,53.075 0,50.635C0,43.604 0.863,36.686 2.588,29.883C3.633,25.697 5.041,21.611 6.795,17.669C7.731,15.581 8.78,13.546 9.937,11.572C10.951,9.829 12.074,8.151 13.299,6.548C14.534,4.945 15.804,3.554 17.109,2.373C18.073,1.493 19.112,0.699 20.215,0ZM241.016,102.197L240.088,100.098C243.473,97.819 246.615,94.043 249.512,88.77C251.653,84.841 253.403,80.711 254.737,76.44C255.294,74.676 255.791,72.892 256.226,71.094C257.531,65.645 258.296,60.082 258.511,54.483C258.567,53.136 258.594,51.787 258.594,50.439C258.581,43.762 257.745,37.112 256.104,30.64C255.223,27.076 254.093,23.578 252.723,20.172C251.731,17.716 250.585,15.325 249.292,13.013C246.411,7.886 243.343,4.248 240.088,2.1L241.016,0C242.606,1.017 244.069,2.219 245.374,3.582C246.631,4.873 247.854,6.367 249.045,8.062C249.842,9.201 250.592,10.372 251.294,11.572C254.468,16.976 256.918,23.08 258.643,29.883C260.368,36.686 261.23,43.929 261.23,51.611C261.249,58.78 260.372,65.924 258.618,72.876C257.747,76.353 256.626,79.764 255.264,83.08C254.153,85.779 252.843,88.391 251.343,90.894C250.255,92.717 249.04,94.46 247.705,96.111C246.27,97.87 244.774,99.374 243.217,100.624C242.514,101.19 241.779,101.715 241.016,102.197ZM53.906,45.02L53.906,43.457C53.897,42.56 54.026,41.666 54.287,40.808C54.64,39.673 55.274,38.644 56.128,37.817C57.234,36.744 58.646,36.039 60.168,35.798C60.777,35.694 61.394,35.642 62.012,35.645C62.905,35.637 63.796,35.747 64.66,35.972C65.89,36.293 67.02,36.919 67.944,37.793C69.085,38.878 69.834,40.311 70.073,41.867C70.17,42.441 70.217,43.022 70.215,43.604L70.215,44.922C70.224,45.801 70.096,46.677 69.836,47.517C69.471,48.666 68.811,49.7 67.92,50.513C66.693,51.642 65.139,52.354 63.482,52.546C63.011,52.608 62.536,52.638 62.061,52.637C59.717,52.637 57.78,51.945 56.25,50.562C54.961,49.399 54.15,47.796 53.976,46.069C53.934,45.721 53.91,45.371 53.906,45.02ZM215.283,45.02L215.283,43.457C215.274,42.56 215.403,41.666 215.664,40.808C216.017,39.673 216.651,38.644 217.505,37.817C218.611,36.744 220.023,36.039 221.545,35.798C222.154,35.694 222.771,35.642 223.389,35.645C224.282,35.637 225.173,35.747 226.037,35.972C227.267,36.293 228.397,36.919 229.321,37.793C230.462,38.878 231.211,40.311 231.45,41.867C231.547,42.441 231.594,43.022 231.592,43.604L231.592,44.922C231.601,45.801 231.473,46.677 231.213,47.517C230.848,48.666 230.188,49.7 229.297,50.513C228.07,51.642 226.516,52.354 224.859,52.546C224.388,52.608 223.913,52.638 223.438,52.637C221.094,52.637 219.157,51.945 217.627,50.562C216.338,49.399 215.527,47.796 215.353,46.069C215.311,45.721 215.287,45.371 215.283,45.02ZM210.693,17.236L219.922,4.248L223.145,4.248L213.623,17.236L210.693,17.236ZM44.238,4.248L53.418,17.236L50.537,17.236L41.016,4.248L44.238,4.248Z" style="fill:none;stroke:black;stroke-width:0.71px;"/>
</svg>
