<svg viewBox="0 0 230 103" xmlns="http://www.w3.org/2000/svg" fill-rule="evenodd" clip-rule="evenodd" stroke-linecap="round"><path d="M20.215 0l.928 2.1c-2.34 1.551-4.583 3.865-6.73 6.94a48.26 48.26 0 0 0-2.304 3.655 62.726 62.726 0 0 0-4.238 9.091 80.68 80.68 0 0 0-2.549 8.097 81.864 81.864 0 0 0-2.658 18.096c-.012.397-.021.794-.027 1.191v2.539a81.711 81.711 0 0 0 2.441 19.604 77.863 77.863 0 0 0 3.349 10.499 63.437 63.437 0 0 0 3.438 7.226 47.918 47.918 0 0 0 2.915 4.625c1.072 1.489 2.168 2.79 3.289 3.901.94.943 1.969 1.792 3.074 2.534l-.928 2.099a26.054 26.054 0 0 1-5.009-4.173c-1.344-1.417-2.638-3.044-3.881-4.88a49.81 49.81 0 0 1-1.437-2.25 60.264 60.264 0 0 1-4.815-10.086 77.136 77.136 0 0 1-2.461-7.932A85.07 85.07 0 0 1 .255 57.947 102.52 102.52 0 0 1 0 50.635a84.11 84.11 0 0 1 2.588-20.752 74.328 74.328 0 0 1 4.207-12.214 63.11 63.11 0 0 1 3.142-6.097 48.153 48.153 0 0 1 3.362-5.024c1.235-1.603 2.505-2.994 3.81-4.175A22.359 22.359 0 0 1 20.215 0zm188.818 102.197l-.928-2.099c3.386-2.279 6.527-6.055 9.424-11.328a68.37 68.37 0 0 0 5.226-12.33 81.071 81.071 0 0 0 1.488-5.346 85.381 85.381 0 0 0 2.285-16.611c.056-1.347.083-2.696.083-4.044a81.2 81.2 0 0 0-2.49-19.799 78.589 78.589 0 0 0-3.381-10.468 62.845 62.845 0 0 0-3.43-7.159c-2.881-5.127-5.95-8.765-9.205-10.913l.928-2.1a23.748 23.748 0 0 1 4.358 3.582c1.257 1.291 2.48 2.785 3.671 4.48a51.344 51.344 0 0 1 2.25 3.51c3.173 5.404 5.623 11.508 7.348 18.311 1.725 6.803 2.588 14.046 2.588 21.728a85.994 85.994 0 0 1-2.612 21.265 74.618 74.618 0 0 1-3.355 10.204 58.572 58.572 0 0 1-3.921 7.814 44.856 44.856 0 0 1-3.638 5.217c-1.435 1.759-2.931 3.263-4.488 4.513a23.652 23.652 0 0 1-2.201 1.573zM79.541 43.652L66.65 11.768 53.662 43.652h-2.881l14.6-35.498h2.539l14.6 35.498h-2.979zm118.945 0l-12.89-31.884-12.989 31.884h-2.88l14.599-35.498h2.539l14.6 35.498h-2.979zm-60.839 1.758v2.637h-22.95V45.41h22.95z" fill="none" stroke="#000" stroke-width=".71"/></svg>