<?xml version="1.0" encoding="UTF-8" standalone="no"?>
<!DOCTYPE svg PUBLIC "-//W3C//DTD SVG 1.1//EN" "http://www.w3.org/Graphics/SVG/1.1/DTD/svg11.dtd">
<svg width="100%" height="100%" viewBox="0 0 64 64" version="1.1" xmlns="http://www.w3.org/2000/svg" xmlns:xlink="http://www.w3.org/1999/xlink" xml:space="preserve" xmlns:serif="http://www.serif.com/" style="fill-rule:evenodd;clip-rule:evenodd;stroke-linejoin:round;stroke-miterlimit:1.41421;">
    <g transform="matrix(0.720288,0,0,0.720288,-4.01858,-4.01654)">
        <path d="M77,49.66L52.57,9.24C52.027,8.344 51.052,7.796 50.005,7.796C48.958,7.796 47.983,8.344 47.44,9.24L23,49.66C22.488,50.504 22.424,51.55 22.83,52.45L31.54,71.69C28.147,73.654 26.051,77.289 26.051,81.21C26.051,87.225 30.985,92.182 37,92.21L63,92.21C69.023,92.193 73.969,87.233 73.969,81.21C73.969,77.289 71.873,73.654 68.48,71.69L77.19,52.45C77.59,51.546 77.519,50.501 77,49.66ZM50,45.91C50.003,45.91 50.007,45.91 50.01,45.91C51.617,45.91 52.94,47.233 52.94,48.84C52.94,50.447 51.617,51.77 50.01,51.77C48.403,51.77 47.08,50.447 47.08,48.84C47.08,48.837 47.08,48.833 47.08,48.83C47.085,47.23 48.4,45.915 50,45.91ZM63,86.21L37,86.21C34.257,86.21 32,83.953 32,81.21C32,78.467 34.257,76.21 37,76.21L63,76.21C65.743,76.21 68,78.467 68,81.21C68,83.953 65.743,86.21 63,86.21ZM62.56,70.21L37.44,70.21L28.93,51.41L47,21.54L47,40.44C43.453,41.705 41.07,45.085 41.07,48.851C41.07,53.75 45.101,57.781 50,57.781C54.899,57.781 58.93,53.75 58.93,48.851C58.93,45.085 56.547,41.705 53,40.44L53,21.54L71.07,51.41L62.56,70.21Z" style="fill:rgb(204,204,204);fill-rule:nonzero;"/>
    </g>
</svg>
