<svg viewBox="0 0 64 64" xmlns="http://www.w3.org/2000/svg" fill-rule="evenodd" clip-rule="evenodd" stroke-linejoin="round" stroke-miterlimit="1.414"><path d="M51.444 31.753L33.847 2.639a2.162 2.162 0 0 0-3.695 0L12.548 31.753a2.164 2.164 0 0 0-.122 2.01l6.273 13.858a7.931 7.931 0 0 0-3.953 6.857c0 4.333 3.554 7.903 7.886 7.923H41.36c4.338-.012 7.9-3.585 7.9-7.923a7.931 7.931 0 0 0-3.953-6.857l6.273-13.858a2.163 2.163 0 0 0-.136-2.01zm-19.448-2.701h.007a2.12 2.12 0 0 1 2.11 2.11 2.12 2.12 0 0 1-2.11 2.11 2.12 2.12 0 0 1-2.11-2.11v-.007a2.12 2.12 0 0 1 2.103-2.103zm9.364 29.027H22.632a3.619 3.619 0 0 1-3.601-3.601 3.619 3.619 0 0 1 3.601-3.601H41.36a3.619 3.619 0 0 1 3.601 3.601 3.619 3.619 0 0 1-3.601 3.601zm-.317-11.524H22.949l-6.13-13.542 13.016-21.515v13.614a6.445 6.445 0 0 0-4.271 6.058c0 3.529 2.903 6.432 6.432 6.432 3.529 0 6.432-2.903 6.432-6.432a6.445 6.445 0 0 0-4.271-6.058V11.498l13.015 21.515-6.13 13.542z" fill-rule="nonzero"/></svg>