<?xml version="1.0" encoding="UTF-8" standalone="no"?>
<!DOCTYPE svg PUBLIC "-//W3C//DTD SVG 1.1//EN" "http://www.w3.org/Graphics/SVG/1.1/DTD/svg11.dtd">
<svg width="100%" height="100%" viewBox="0 0 64 80" version="1.1" xmlns="http://www.w3.org/2000/svg" xmlns:xlink="http://www.w3.org/1999/xlink" xml:space="preserve" xmlns:serif="http://www.serif.com/" style="fill-rule:evenodd;clip-rule:evenodd;stroke-linejoin:round;stroke-miterlimit:1.41421;">
    <rect x="16" y="38" width="6" height="2"/>
    <path d="M2.143,33.809L2.5,34.8C2.629,35.359 2.796,35.909 3,36.446L3,61C3,61.549 3.451,62 4,62L15,62C15.549,62 16,61.549 16,61L16,57L27,57C27.549,57 28,56.549 28,56L28,48L31,48C31.549,48 32,47.549 32,47C32,46.802 31.942,46.609 31.832,46.445L28,40.7L28,36.446C28.168,36.006 28.311,35.557 28.428,35.101L29.522,34.267C29.74,34.1 29.881,33.851 29.91,33.578C30.03,32.529 30.03,31.471 29.91,30.422C29.872,30.067 29.647,29.758 29.32,29.614L27.393,28.763C27.302,28.422 27.201,28.098 27.093,27.788L28.161,25.944C28.338,25.639 28.341,25.263 28.169,24.955C27.654,24.037 27.04,23.178 26.337,22.395C26.095,22.124 25.723,22.006 25.368,22.087L23.341,22.551C23.09,22.351 22.828,22.156 22.556,21.972L22.356,19.829C22.324,19.474 22.104,19.162 21.78,19.012C20.837,18.571 19.848,18.239 18.83,18.021C18.474,17.946 18.104,18.071 17.867,18.347L16.482,19.954C16.162,19.938 15.835,19.938 15.517,19.954L14.131,18.347C13.894,18.071 13.524,17.946 13.168,18.021C12.15,18.239 11.161,18.571 10.218,19.012C9.895,19.162 9.675,19.473 9.643,19.828L9.443,21.972C9.171,22.156 8.909,22.35 8.659,22.551L6.631,22.086C6.276,22.005 5.904,22.124 5.662,22.395C4.959,23.178 4.345,24.037 3.83,24.955C3.658,25.263 3.661,25.639 3.838,25.944L4.91,27.788C4.799,28.098 4.698,28.421 4.61,28.763L2.684,29.613C2.357,29.757 2.131,30.066 2.093,30.422C1.973,31.471 1.973,32.529 2.093,33.578C2.1,33.657 2.117,33.734 2.143,33.809ZM4.028,31.209L5.863,30.399C6.152,30.272 6.364,30.015 6.435,29.708C6.556,29.155 6.723,28.612 6.935,28.087C7.054,27.8 7.033,27.472 6.877,27.203L5.865,25.447C6.142,25.003 6.447,24.577 6.778,24.171L8.701,24.611C9.015,24.683 9.344,24.6 9.586,24.387C10.004,24.02 10.452,23.689 10.926,23.397C11.192,23.231 11.366,22.95 11.395,22.638L11.581,20.599C12.048,20.407 12.526,20.244 13.014,20.113L14.33,21.641C14.537,21.887 14.854,22.016 15.174,21.984C15.724,21.937 16.278,21.937 16.828,21.984C17.148,22.012 17.461,21.884 17.671,21.641L18.986,20.114C19.474,20.245 19.952,20.407 20.419,20.599L20.605,22.638C20.635,22.95 20.809,23.231 21.075,23.397C21.549,23.688 21.996,24.019 22.413,24.387C22.655,24.6 22.985,24.684 23.299,24.612L25.223,24.171C25.553,24.577 25.858,25.003 26.135,25.447L25.119,27.2C24.963,27.469 24.942,27.797 25.061,28.084C25.273,28.609 25.44,29.152 25.561,29.705C25.632,30.012 25.844,30.269 26.132,30.396L27.968,31.206C27.987,31.482 27.996,31.745 27.996,32.006C27.996,32.306 27.983,32.618 27.957,32.948L26.93,33.731C26.744,33.873 26.613,34.075 26.561,34.303C26.441,34.842 26.277,35.371 26.07,35.883C26.021,36.003 25.996,36.131 25.996,36.261L25.996,41C25.996,41.197 26.055,41.391 26.164,41.555L29.132,46L27,46C26.451,46 26,46.451 26,47L26,55L15,55C14.451,55 14,55.451 14,56L14,60L5,60L5,36.255C5,36.125 4.975,35.997 4.926,35.877C4.719,35.366 4.555,34.838 4.435,34.3C4.426,34.261 4.415,34.223 4.401,34.186L4.066,33.252C4.023,32.836 4.001,32.418 4,32C4,31.744 4.009,31.481 4.028,31.205L4.028,31.209Z" style="fill-rule:nonzero;"/>
    <path d="M10,32L22,32C22.549,32 23,31.549 23,31L23,30.5C22.854,26.801 19.7,23.872 16,24C12.3,23.872 9.146,26.801 9,30.5L9,31C9,31.549 9.451,32 10,32ZM16,26C18.413,25.902 20.55,27.622 20.97,30L11.03,30C11.45,27.622 13.587,25.902 16,26Z" style="fill-rule:nonzero;"/>
    <path d="M54.319,18.081C54.489,18.202 54.692,18.267 54.9,18.267C55.449,18.267 55.9,17.816 55.9,17.267C55.9,17.16 55.883,17.054 55.849,16.952L54.782,13.731L57.582,11.736C57.846,11.549 58.003,11.244 58.003,10.921C58.003,10.372 57.551,9.921 57.003,9.921C57.002,9.921 57.001,9.921 57,9.921L53.521,9.921L52.449,6.686C52.314,6.277 51.93,5.998 51.499,5.998C51.068,5.998 50.684,6.277 50.549,6.686L49.479,9.921L46,9.921C46,9.921 46,9.921 45.999,9.921C45.451,9.921 44.999,10.372 44.999,10.921C44.999,11.244 45.156,11.549 45.42,11.736L48.22,13.731L47.153,16.952C47.119,17.054 47.102,17.16 47.102,17.267C47.102,17.816 47.553,18.267 48.102,18.267C48.31,18.267 48.513,18.202 48.683,18.081L51.502,16.071L54.319,18.081ZM50.012,14.681L50.349,13.665C50.486,13.249 50.336,12.79 49.979,12.536L49.125,11.926L50.2,11.926C50.63,11.926 51.014,11.649 51.149,11.241L51.499,10.186L51.849,11.241C51.984,11.649 52.368,11.926 52.798,11.926L53.874,11.926L53.02,12.536C52.663,12.79 52.513,13.249 52.65,13.665L52.987,14.681L52.079,14.034C51.733,13.787 51.265,13.787 50.919,14.034L50.012,14.681Z" style="fill-rule:nonzero;"/>
    <path d="M46.8,23.17C48.132,23.721 49.559,24.003 51,24L51.01,24L51,22C49.822,22.002 48.654,21.772 47.565,21.322L46.8,23.17Z" style="fill-rule:nonzero;"/>
    <path d="M44.646,19.374C43.808,18.541 43.143,17.55 42.688,16.459L40.843,17.229C41.397,18.562 42.209,19.772 43.233,20.79L44.646,19.374Z" style="fill-rule:nonzero;"/>
    <path d="M58.782,20.774L57.368,19.361C56.534,20.198 55.542,20.862 54.451,21.315L55.219,23.162C56.552,22.608 57.763,21.797 58.782,20.774Z" style="fill-rule:nonzero;"/>
    <path d="M44.62,6.652C45.452,5.813 46.442,5.147 47.532,4.693L46.761,2.847C45.428,3.405 44.219,4.22 43.202,5.247L44.62,6.652Z" style="fill-rule:nonzero;"/>
    <path d="M40.825,8.813C40.277,10.141 39.997,11.564 40,13L40,13.021L42,13C41.998,11.825 42.227,10.661 42.675,9.575L40.825,8.813Z" style="fill-rule:nonzero;"/>
    <path d="M55.177,2.821C53.852,2.276 52.433,1.997 51,2L50.97,2L51,4C52.172,3.998 53.333,4.226 54.417,4.671L55.177,2.821Z" style="fill-rule:nonzero;"/>
    <path d="M59.318,16.442L61.166,17.208C61.719,15.874 62.003,14.444 62,13L62,12.959L60,13C60.003,14.181 59.771,15.351 59.318,16.442Z" style="fill-rule:nonzero;"/>
    <path d="M61.148,8.75C60.59,7.418 59.774,6.21 58.748,5.195L57.338,6.614C58.178,7.445 58.846,8.434 59.302,9.524L61.148,8.75Z" style="fill-rule:nonzero;"/>
    <g transform="matrix(0.848,-0.53,0.53,0.848,-6.605,21.97)">
        <rect x="30.283" y="21.5" width="9.434" height="2.001"/>
    </g>
    <g transform="matrix(1,0,0,1,0,84)">
        <text x="0px" y="0px" style="font-family:'Arial-BoldMT', 'Arial', sans-serif;font-weight:700;font-size:5px;">from the Noun Project</text>
    </g>
</svg>
