<svg viewBox="0 0 64 64" xmlns="http://www.w3.org/2000/svg" fill-rule="evenodd" clip-rule="evenodd" stroke-linejoin="round" stroke-miterlimit="1.414"><path d="M44 42a2.984 2.984 0 0 0-.78-2c.48-.533.78-1.23.78-2a2.984 2.984 0 0 0-.78-2c.48-.533.78-1.23.78-2a2.994 2.994 0 0 0-.909-2.146C46.813 28.64 49 23.944 49 19c0-9.374-7.626-17-17-17-9.374 0-17 7.626-17 17 0 4.945 2.187 9.64 5.909 12.855A2.994 2.994 0 0 0 20 34c0 .771.301 1.468.78 2-.5.546-.778 1.26-.78 2 0 .771.301 1.468.78 2-.5.546-.778 1.26-.78 2 0 1.302.839 2.402 2 2.816V52c0 .27.11.52.295.705l-.002.002 9 9a.998.998 0 0 0 1.414 0l9-9-.002-.002A.997.997 0 0 0 42 52v-7.184A3.002 3.002 0 0 0 44 42zm-22-4c0-.552.449-1 1-1h18c.551 0 1 .448 1 1 0 .55-.449 1-1 1H23c-.551 0-1-.45-1-1zm0-4c0-.552.449-1 1-1h17.996l.012.001c.53.026.951.47.951 1 0 .532-.426.976-.959.998H23c-.551 0-1-.449-1-1zm7.64-10.769l-3.862-3.219A4.93 4.93 0 0 1 24 16.217C24 14.502 25.402 13 27 13c.311 0 .616.05.908.147-.02.028-.034.06-.053.088-.105.155-.2.314-.286.48-.019.036-.042.071-.061.11a4.94 4.94 0 0 0-.253.621c-.018.055-.032.112-.049.167a5.228 5.228 0 0 0-.121.51A5.199 5.199 0 0 0 27 16a4.971 4.971 0 0 0 1.872 3.876c.365.295.891.295 1.256 0A4.971 4.971 0 0 0 32 16c0-.23-.022-.459-.053-.685-.009-.065-.021-.128-.033-.193a4.649 4.649 0 0 0-.121-.509c-.016-.056-.03-.112-.048-.167a4.94 4.94 0 0 0-.253-.622c-.018-.036-.04-.07-.059-.107a5.06 5.06 0 0 0-.291-.485c-.018-.027-.031-.057-.05-.084a2.912 2.912 0 0 1 1.818 0c-.019.027-.032.057-.05.084a5.06 5.06 0 0 0-.291.485c-.019.036-.041.07-.059.107-.099.201-.183.41-.253.622-.018.055-.032.111-.048.167a5.228 5.228 0 0 0-.121.51A4.769 4.769 0 0 0 32 16a4.971 4.971 0 0 0 1.872 3.876c.365.295.891.295 1.256 0A4.971 4.971 0 0 0 37 16c0-.23-.022-.459-.053-.685-.009-.065-.021-.128-.033-.193a4.649 4.649 0 0 0-.121-.509c-.016-.056-.03-.112-.049-.167a4.94 4.94 0 0 0-.253-.622c-.018-.038-.041-.073-.061-.11a4.922 4.922 0 0 0-.286-.479c-.019-.029-.033-.06-.053-.088.293-.097.6-.147.909-.147 1.598 0 3 1.503 3 3.218 0 1.47-.648 2.854-1.778 3.795l-3.862 3.22a1 1 0 0 0-.36.767v7h-4v-7a1 1 0 0 0-.36-.768zm.068-8.503c.084.174.145.358.193.546.063.237.096.48.099.725 0 .2-.028.394-.067.586-.01.046-.02.093-.032.138a2.928 2.928 0 0 1-.193.546c-.006.013-.015.026-.022.04-.052.102-.122.196-.186.293-.064-.097-.134-.19-.186-.294-.007-.013-.016-.026-.022-.039a2.928 2.928 0 0 1-.193-.546c-.012-.046-.022-.092-.032-.138A2.965 2.965 0 0 1 29 16c0-.199.028-.394.067-.586.01-.046.02-.093.032-.138.048-.187.109-.37.193-.546l.022-.039c.052-.103.122-.197.186-.294.064.097.134.191.186.294.006.013.015.025.022.038zm5 0c.103.218.179.448.225.684.039.193.067.388.067.587 0 .2-.028.394-.067.586-.01.046-.02.093-.032.138a2.928 2.928 0 0 1-.193.546c-.006.013-.015.026-.022.04-.052.102-.122.196-.186.293-.064-.097-.134-.19-.186-.294-.007-.013-.016-.026-.022-.039a2.95 2.95 0 0 1-.225-.684A2.965 2.965 0 0 1 34 16c0-.199.028-.394.067-.586.01-.046.02-.093.032-.138.048-.187.109-.37.193-.546l.022-.039c.052-.103.122-.197.186-.294.064.097.134.191.186.294.006.013.015.025.022.038zM17 19c0-8.27 6.729-15 15-15s15 6.73 15 15c0 4.71-2.245 9.168-6.022 12H36v-6.532l3.502-2.919A6.922 6.922 0 0 0 42 16.218c0-2.829-2.29-5.219-5-5.219a4.884 4.884 0 0 0-2.503.697 4.997 4.997 0 0 0-4.993 0A4.887 4.887 0 0 0 27 11c-2.71 0-5 2.39-5 5.218 0 2.065.91 4.01 2.498 5.332L28 24.467V31h-4.978C19.245 28.167 17 23.71 17 19zm7.57 33.155l1.43-.953 2.445 1.63c.335.223.774.223 1.109 0L32 51.201l2.445 1.63c.335.223.774.223 1.109 0L38 51.201l1.43.954L35.586 56h-7.172l-3.844-3.845zm13.985-2.987a1.003 1.003 0 0 0-1.109 0L35 50.797l-2.445-1.63a1.003 1.003 0 0 0-1.109 0L29 50.797l-2.445-1.63a1.003 1.003 0 0 0-1.109 0L24 50.13V45h16v5.13l-1.445-.963zM32 59.585L30.414 58h3.172L32 59.585zM41 43H23c-.551 0-1-.449-1-1 0-.55.449-1 1-1h18c.551 0 1 .45 1 1 0 .551-.449 1-1 1z" fill-rule="nonzero"/><path d="M47.293 6.292l4-4 1.414 1.414-4 4-1.414-1.414zm0 25.415l1.414-1.415 4 4-1.414 1.415-4-4zM52 18h6v2h-6v-2zM11.293 3.707l1.414-1.415 4 4-1.414 1.415-4-4zm0 30.584l4-4 1.414 1.415-4 4-1.414-1.415zM6 18h6v2H6v-2zm38 32h2v2h-2v-2zm4 0h2v2h-2v-2zm4 0h2v2h-2v-2zm-42 0h2v2h-2v-2zm4 0h2v2h-2v-2zm4 0h2v2h-2v-2z"/></svg>