<svg viewBox="0 0 262 103" xmlns="http://www.w3.org/2000/svg" fill-rule="evenodd" clip-rule="evenodd" stroke-linecap="round"><path d="M139.404 26.416h3.223a66.116 66.116 0 0 0-5.976 15.85 55.79 55.79 0 0 0-1.446 12.568 41.425 41.425 0 0 0 .488 6.552c.62 3.873 1.833 7.182 3.638 9.927a15.074 15.074 0 0 0 3.428 3.762 12.468 12.468 0 0 0 7.778 2.513 13.957 13.957 0 0 0 4.94-.838c2.249-.845 4.134-2.327 5.656-4.448l.146-.207a18.775 18.775 0 0 0 2.41-5.048c.509-1.603.888-3.38 1.138-5.33.229-1.846.349-3.705.359-5.565V41.65h2.685v14.746c.098 6.804 1.392 12.037 3.882 15.699a11.928 11.928 0 0 0 8.647 5.358c.703.091 1.411.136 2.12.135a12.461 12.461 0 0 0 9.742-4.368 17.182 17.182 0 0 0 1.439-1.882c2.315-3.485 3.661-7.904 4.04-13.257.075-1.081.112-2.164.111-3.247a56.579 56.579 0 0 0-1.709-13.672c-1.139-4.59-3.044-9.505-5.713-14.746h3.222l2.344 5.273a53.22 53.22 0 0 1 3.965 14.882c.324 2.693.483 5.404.478 8.117a45.742 45.742 0 0 1-.568 7.438c-.446 2.705-1.155 5.155-2.128 7.35a23.122 23.122 0 0 1-2.113 3.791 16.763 16.763 0 0 1-4.452 4.488c-2.309 1.543-4.975 2.363-8 2.46-.203.007-.407.01-.61.01a18.733 18.733 0 0 1-4.715-.564 13.99 13.99 0 0 1-5.587-2.854c-2.632-2.22-4.523-5.382-5.672-9.486a17.684 17.684 0 0 1-.09-.329 23.826 23.826 0 0 1-1.693 4.543c-.966 1.927-2.17 3.55-3.613 4.871-.149.137-.301.27-.456.401a14.278 14.278 0 0 1-6.873 3.132 19.72 19.72 0 0 1-3.43.286 15.797 15.797 0 0 1-6.614-1.346c-2.221-1.009-4.15-2.587-5.788-4.732a19.45 19.45 0 0 1-.683-.954 25.79 25.79 0 0 1-3.478-7.854c-.603-2.269-.99-4.741-1.159-7.417a51.308 51.308 0 0 1-.1-3.234 62.9 62.9 0 0 1 1.469-13.84 52.555 52.555 0 0 1 2.926-9.11l2.392-5.322zM20.215 0l.928 2.1c-2.34 1.551-4.583 3.865-6.73 6.94a48.26 48.26 0 0 0-2.304 3.655 62.726 62.726 0 0 0-4.238 9.091 80.68 80.68 0 0 0-2.549 8.097 81.864 81.864 0 0 0-2.658 18.096c-.012.397-.021.794-.027 1.191v2.539a81.711 81.711 0 0 0 2.441 19.604 77.863 77.863 0 0 0 3.349 10.499 63.437 63.437 0 0 0 3.438 7.226 47.918 47.918 0 0 0 2.915 4.625c1.072 1.489 2.168 2.79 3.289 3.901.94.943 1.969 1.792 3.074 2.534l-.928 2.099a26.054 26.054 0 0 1-5.009-4.173c-1.344-1.417-2.638-3.044-3.881-4.88a49.81 49.81 0 0 1-1.437-2.25 60.264 60.264 0 0 1-4.815-10.086 77.136 77.136 0 0 1-2.461-7.932A85.07 85.07 0 0 1 .255 57.947 102.52 102.52 0 0 1 0 50.635a84.11 84.11 0 0 1 2.588-20.752 74.328 74.328 0 0 1 4.207-12.214 63.11 63.11 0 0 1 3.142-6.097 48.153 48.153 0 0 1 3.362-5.024c1.235-1.603 2.505-2.994 3.81-4.175A22.359 22.359 0 0 1 20.215 0zm220.801 102.197l-.928-2.099c3.385-2.279 6.527-6.055 9.424-11.328a68.365 68.365 0 0 0 5.225-12.33 81.08 81.08 0 0 0 1.489-5.346 85.381 85.381 0 0 0 2.285-16.611c.056-1.347.083-2.696.083-4.044a81.2 81.2 0 0 0-2.49-19.799 78.589 78.589 0 0 0-3.381-10.468 63.022 63.022 0 0 0-3.431-7.159c-2.881-5.127-5.949-8.765-9.204-10.913l.928-2.1a23.748 23.748 0 0 1 4.358 3.582c1.257 1.291 2.48 2.785 3.671 4.48a51.33 51.33 0 0 1 2.249 3.51c3.174 5.404 5.624 11.508 7.349 18.311 1.725 6.803 2.587 14.046 2.587 21.728a85.994 85.994 0 0 1-2.612 21.265 74.522 74.522 0 0 1-3.354 10.204 58.572 58.572 0 0 1-3.921 7.814 44.856 44.856 0 0 1-3.638 5.217c-1.435 1.759-2.931 3.263-4.488 4.513a23.652 23.652 0 0 1-2.201 1.573zM53.906 45.02v-1.563a8.803 8.803 0 0 1 .381-2.649 7.102 7.102 0 0 1 1.841-2.991 7.484 7.484 0 0 1 4.04-2.019 10.648 10.648 0 0 1 1.844-.153 10.15 10.15 0 0 1 2.648.327c1.23.321 2.36.947 3.284 1.821a7.113 7.113 0 0 1 2.129 4.074c.097.574.144 1.155.142 1.737v1.318a8.485 8.485 0 0 1-.379 2.595 6.871 6.871 0 0 1-1.916 2.996 7.898 7.898 0 0 1-4.438 2.033c-.471.062-.946.092-1.421.091-2.344 0-4.281-.692-5.811-2.075a6.999 6.999 0 0 1-2.274-4.493 9.673 9.673 0 0 1-.07-1.049zm161.377 0v-1.563a8.803 8.803 0 0 1 .381-2.649 7.102 7.102 0 0 1 1.841-2.991 7.484 7.484 0 0 1 4.04-2.019 10.648 10.648 0 0 1 1.844-.153 10.15 10.15 0 0 1 2.648.327c1.23.321 2.36.947 3.284 1.821a7.113 7.113 0 0 1 2.129 4.074c.097.574.144 1.155.142 1.737v1.318a8.485 8.485 0 0 1-.379 2.595 6.871 6.871 0 0 1-1.916 2.996 7.898 7.898 0 0 1-4.438 2.033c-.471.062-.946.092-1.421.091-2.344 0-4.281-.692-5.811-2.075a6.999 6.999 0 0 1-2.274-4.493 9.673 9.673 0 0 1-.07-1.049zm-4.59-27.784l9.229-12.988h3.223l-9.522 12.988h-2.93zM44.238 4.248l9.18 12.988h-2.881L41.016 4.248h3.222z" fill="none" stroke="#000" stroke-width=".71"/></svg>